<svg width="442" height="442" viewBox="0 0 442 442" fill="none" xmlns="http://www.w3.org/2000/svg">
<path d="M215.276 28.002L378 109.95L215.276 191.002L53 109.95L215.276 28.002Z" fill="#FC4643"/>
<path d="M211.757 16.8424C215.711 14.871 220.514 16.4777 222.485 20.4312C224.457 24.3851 222.85 29.189 218.896 31.1607L73.0078 103.907L135.155 134.55L289.919 57.9224C293.878 55.962 298.677 57.5822 300.638 61.5416C302.598 65.501 300.978 70.2997 297.019 72.2603L153.222 143.46L215.341 174.089L373.486 96.7613L373.86 96.5894C377.752 94.9253 382.306 96.5891 384.187 100.434C386.127 104.403 384.483 109.195 380.514 111.135L218.841 190.188C216.615 191.276 214.01 191.272 211.788 190.176L51.4619 111.124C48.7357 109.779 47.0069 107.006 47 103.966C46.9932 100.927 48.7095 98.1452 51.4297 96.7887L211.757 16.8424Z" fill="#EAC225"/>
<path d="M46.8057 119.189C49.1703 117.733 52.1208 117.608 54.6006 118.858L207.601 195.979L207.964 196.175C211.642 198.269 213.07 202.902 211.144 206.725C209.217 210.547 204.642 212.155 200.771 210.443L200.399 210.267L59 138.992V221.461L207.533 294.591C211.497 296.542 213.129 301.338 211.178 305.302C209.226 309.265 204.431 310.896 200.467 308.945L59 239.295V334.082L207.634 409.875L207.996 410.071C211.664 412.182 213.071 416.823 211.127 420.636C209.183 424.449 204.6 426.036 200.737 424.307L200.366 424.129L47.3662 346.11C44.687 344.744 43 341.991 43 338.983V126.002L43.0039 125.742C43.0906 123.065 44.5147 120.6 46.8057 119.189Z" fill="#03AC4F"/>
<path d="M387.43 113.842C391.384 111.871 396.187 113.478 398.159 117.431C400.131 121.385 398.524 126.189 394.57 128.161L235 207.728V291.459L387.462 216.271L387.836 216.098C391.722 214.421 396.282 216.069 398.175 219.908C400.129 223.871 398.501 228.668 394.538 230.622L235 309.298V405.231L387.51 331.274C391.485 329.347 396.27 331.006 398.198 334.981C400.126 338.957 398.466 343.743 394.49 345.671L230.49 425.2C228.011 426.402 225.088 426.244 222.753 424.781C220.418 423.318 219 420.757 219 418.002V202.778L219.005 202.494C219.108 199.573 220.8 196.93 223.43 195.619L387.43 113.842Z" fill="black"/>
</svg>
